<svg id="Capa_1" enable-background="new 0 0 510.88 510.88" height="512" viewBox="0 0 510.88 510.88" width="512" xmlns="http://www.w3.org/2000/svg"><g><path d="m98.07 429.095h-65.57c-9.649 0-17.5-7.851-17.5-17.5v-357c0-9.649 7.851-17.5 17.5-17.5h145c9.649 0 17.5 7.851 17.5 17.5v16.59c0 9.649 7.851 17.5 17.5 17.5h200.54c4.142 0 7.5-3.357 7.5-7.5s-3.358-7.5-7.5-7.5h-200.54c-1.378 0-2.5-1.121-2.5-2.5v-16.59c0-17.921-14.58-32.5-32.5-32.5h-145c-17.92 0-32.5 14.579-32.5 32.5v357c0 17.921 14.58 32.5 32.5 32.5h65.57c4.142 0 7.5-3.357 7.5-7.5s-3.358-7.5-7.5-7.5z"/><path d="m478.38 73.685h-30.34c-4.142 0-7.5 3.357-7.5 7.5s3.358 7.5 7.5 7.5h30.34c9.649 0 17.5 7.851 17.5 17.5v305.41c0 9.649-7.851 17.5-17.5 17.5h-112.474l-68.627-81.935c6.377-5.676 7.144-15.455 1.627-22.043l-18.363-21.925c9.031-16.249 14.629-34.361 16.316-53.435 3.162-35.754-7.788-70.6-30.834-98.117-47.575-56.808-132.495-64.317-189.299-16.744-27.518 23.046-44.414 55.428-47.576 91.182s7.788 70.6 30.833 98.117c23.046 27.518 55.428 44.414 91.182 47.576 4.039.357 8.064.534 12.071.534 11.716 0 23.253-1.518 34.382-4.475.289.875 20.321 25.094 20.321 25.094 2.723 3.252 6.55 5.248 10.774 5.622.478.042.953.063 1.427.063 3.612 0 7.075-1.228 9.914-3.513l28.476 33.998h-135.46c-4.142 0-7.5 3.357-7.5 7.5s3.358 7.5 7.5 7.5h148.024l27.636 32.995c5.601 6.687 13.47 10.794 22.159 11.564.984.087 1.966.131 2.942.131 7.644 0 14.976-2.654 20.905-7.621l7.149-5.989c9.359-7.839 13.205-19.851 11.114-31.08h105.38c17.92 0 32.5-14.579 32.5-32.5v-305.41c.001-17.92-14.579-32.499-32.499-32.499zm-325.893 283.145c-31.763-2.81-60.53-17.819-81.003-42.266s-30.202-55.401-27.393-87.164c2.81-31.764 17.819-60.531 42.266-81.004 22.313-18.687 49.5-27.805 76.55-27.805 34.131 0 68.04 14.525 91.617 42.678 20.474 24.446 30.202 55.402 27.392 87.165-2.809 31.763-17.819 60.53-42.265 81.003-24.445 20.474-55.402 30.207-87.164 27.393zm77.549 26.774c-.24-.021-.441-.126-.596-.312l-17.037-20.342c13.221-5.238 25.661-12.617 36.88-22.013 8.7-7.286 16.334-15.507 22.813-24.471l15.31 18.281c.311.371.262.928-.109 1.238l-56.619 47.417c-.186.156-.402.218-.642.202zm122.217 80.072-7.149 5.989c-3.613 3.027-8.191 4.46-12.89 4.048-4.699-.417-8.956-2.638-11.984-6.254l-68.666-81.982 34.232-28.668 68.663 81.979c6.249 7.47 5.261 18.634-2.206 24.888z"/><path d="m240.109 173.343c-35.606-42.517-99.164-48.135-141.679-12.53-42.516 35.606-48.137 99.163-12.531 141.679 19.866 23.721 48.429 35.956 77.187 35.956 22.787 0 45.697-7.685 64.492-23.425 42.516-35.607 48.137-99.165 12.531-141.68zm-22.162 130.179c-15.994 13.395-35.483 19.932-54.874 19.931-24.466-.002-48.774-10.412-65.675-30.593-30.295-36.175-25.513-90.252 10.662-120.548 15.994-13.395 35.483-19.932 54.875-19.932 24.466 0 48.773 10.412 65.674 30.593 30.296 36.175 25.513 90.254-10.662 120.549z"/><path d="m210.438 200.646c-13.258 0-24.043 10.785-24.043 24.043v26.457c0 13.258 10.786 24.043 24.043 24.043s24.043-10.785 24.043-24.043v-26.457c0-13.258-10.785-24.043-24.043-24.043zm9.043 50.5c0 4.986-4.057 9.043-9.043 9.043s-9.043-4.057-9.043-9.043v-26.457c0-4.986 4.057-9.043 9.043-9.043s9.043 4.057 9.043 9.043z"/><path d="m166.07 201.813h-12.228c-4.142 0-7.5 3.357-7.5 7.5s3.358 7.5 7.5 7.5h4.728v49.708c0 4.143 3.358 7.5 7.5 7.5s7.5-3.357 7.5-7.5v-57.208c0-4.142-3.358-7.5-7.5-7.5z"/><path d="m115.57 200.646c-13.257 0-24.043 10.785-24.043 24.043v26.457c0 13.258 10.786 24.043 24.043 24.043 13.258 0 24.043-10.785 24.043-24.043v-26.457c0-13.258-10.785-24.043-24.043-24.043zm9.043 50.5c0 4.986-4.057 9.043-9.043 9.043s-9.043-4.057-9.043-9.043v-26.457c0-4.986 4.057-9.043 9.043-9.043 4.987 0 9.043 4.057 9.043 9.043z"/><path d="m326.651 268.528c4.142 0 7.5-3.357 7.5-7.5v-46.223c0-4.143-3.358-7.5-7.5-7.5h-9.975c-4.142 0-7.5 3.357-7.5 7.5s3.358 7.5 7.5 7.5h2.475v38.723c0 4.143 3.358 7.5 7.5 7.5z"/><path d="m458.115 269.472c11.577 0 20.996-9.36 20.996-20.866v-21.377c0-11.506-9.419-20.866-20.996-20.866s-20.996 9.36-20.996 20.866v21.377c0 11.505 9.419 20.866 20.996 20.866zm-5.996-42.243c0-3.234 2.69-5.866 5.996-5.866s5.996 2.632 5.996 5.866v21.377c0 3.234-2.69 5.866-5.996 5.866s-5.996-2.632-5.996-5.866z"/><path d="m406.643 207.306c-4.142 0-7.5 3.357-7.5 7.5s3.358 7.5 7.5 7.5h2.476v38.723c0 4.143 3.358 7.5 7.5 7.5s7.5-3.357 7.5-7.5v-46.223c0-4.143-3.358-7.5-7.5-7.5z"/><path d="m347.151 227.229v21.377c0 11.506 9.419 20.866 20.996 20.866s20.996-9.36 20.996-20.866v-21.377c0-11.506-9.419-20.866-20.996-20.866s-20.996 9.36-20.996 20.866zm26.992 0v21.377c0 3.234-2.69 5.866-5.996 5.866s-5.996-2.632-5.996-5.866v-21.377c0-3.234 2.69-5.866 5.996-5.866s5.996 2.631 5.996 5.866z"/></g></svg>